HIERARCHY
ROOT Hips
{
	OFFSET 0.00000 0.00000 0.00000
	CHANNELS 6 Xposition Yposition Zposition Zrotation Yrotation Xrotation 
	JOINT LHipJoint
	{
		OFFSET 0 0 0
		CHANNELS 3 Zrotation Yrotation Xrotation
		JOINT LeftHip
		{
			OFFSET 1.56741 -1.82513 0.67319
			CHANNELS 3 Zrotation Yrotation Xrotation
			JOINT LeftKnee
			{
				OFFSET 2.35708 -6.47604 0.00000
				CHANNELS 3 Zrotation Yrotation Xrotation
				JOINT LeftAnkle
				{
					OFFSET 2.70636 -7.43567 0.00000
					CHANNELS 3 Zrotation Yrotation Xrotation
					JOINT LeftToe
					{
						OFFSET 0.20427 -0.56122 2.08535
						CHANNELS 3 Zrotation Yrotation Xrotation
						End Site
						{
							OFFSET 0.00000 -0.00000 1.08535
						}
					}
				}
			}
		}
	}
	JOINT RHipJoint
	{
		OFFSET 0 0 0
		CHANNELS 3 Zrotation Yrotation Xrotation
		JOINT RightHip
		{
			OFFSET -1.51422 -1.82513 0.67319
			CHANNELS 3 Zrotation Yrotation Xrotation
			JOINT RightKnee
			{
				OFFSET -2.48824 -6.83638 0.00000
				CHANNELS 3 Zrotation Yrotation Xrotation
				JOINT RightAnkle
				{
					OFFSET -2.70033 -7.41909 0.00000
					CHANNELS 3 Zrotation Yrotation Xrotation
					JOINT RightToe
					{
						OFFSET -0.19750 -0.54263 2.22151
						CHANNELS 3 Zrotation Yrotation Xrotation
						End Site
						{
							OFFSET -0.00000 -0.00000 1.14915
						}
					}
				}
			}
		}
	}
	JOINT lowerback
	{
		OFFSET 0 0 0
		CHANNELS 3 Zrotation Yrotation Xrotation
		JOINT Chest
		{
			OFFSET -0.01567 2.12874 -0.15842
			CHANNELS 3 Zrotation Yrotation Xrotation
			JOINT Chest2
			{
				OFFSET 0.06098 2.13326 -0.01043
				CHANNELS 3 Zrotation Yrotation Xrotation
				JOINT lowerneck
				{
					OFFSET 0 0 0
					CHANNELS 3 Zrotation Yrotation Xrotation
					JOINT Neck
					{
						OFFSET -0.05040 1.78432 0.13387
						CHANNELS 3 Zrotation Yrotation Xrotation
						JOINT Head
						{
							OFFSET -0.00180 1.76880 -0.33303
							CHANNELS 3 Zrotation Yrotation Xrotation
							End Site
							{
								OFFSET 0.00734 1.81249 -0.12719
							}
						}
					}
				}
				JOINT LeftCollar
				{
					OFFSET 0 0 0
					CHANNELS 3 Zrotation Yrotation Xrotation
					JOINT LeftShoulder
					{
						OFFSET 3.72199 0.94188 -0.54317
CHANNELS 3 Zrotation Xrotation Yrotation
						JOINT LeftElbow
						{
OFFSET 0 -5.146010 0.000000
CHANNELS 3 Zrotation Xrotation Yrotation
							JOINT LeftWrist
							{
OFFSET 0 -3.644520 -0.000000
CHANNELS 3 Zrotation Xrotation Yrotation
								JOINT lhand
								{
									OFFSET 0 0 0
CHANNELS 3 Zrotation Xrotation Yrotation
									JOINT LFingers
									{
OFFSET 0 -0.562280 0.000000
CHANNELS 3 Zrotation Xrotation Yrotation
										End Site
										{
OFFSET 0 -0.453320 0.000000
										}
									}
								}
								JOINT LThumb
								{
OFFSET 0 0.000000 0.000000
CHANNELS 3 Zrotation Xrotation Yrotation
									End Site
									{
OFFSET 0 -0.460250 0.460250
									}
								}
							}
						}
					}
				}
				JOINT RightCollar
				{
					OFFSET 0 0 0
					CHANNELS 3 Zrotation Yrotation Xrotation
					JOINT RightShoulder
					{
						OFFSET -3.30253 1.22679 -0.46941
CHANNELS 3 Zrotation Xrotation Yrotation
						JOINT RightElbow
						{
OFFSET 0 -5.339130 0.000000
CHANNELS 3 Zrotation Xrotation Yrotation
							JOINT RightWrist
							{
OFFSET 0 -3.564780 -0.000000
CHANNELS 3 Zrotation Xrotation Yrotation
								JOINT rhand
								{
									OFFSET 0 0 0
CHANNELS 3 Zrotation Xrotation Yrotation
									JOINT RFingers
									{
OFFSET 0 -0.857470 0.000000
CHANNELS 3 Zrotation Xrotation Yrotation
										End Site
										{
OFFSET 0 -0.691320 0.000000
										}
									}
								}
								JOINT RThumb
								{
OFFSET 0 0.000000 0.000000
CHANNELS 3 Zrotation Xrotation Yrotation
									End Site
									{
OFFSET 0 -0.701870 0.701870
									}
								}
							}
						}
					}
				}
			}
		}
	}
}
MOTION
Frames: 4
Frame Time: 0.008333333333333333
-9.696200 14.443600 -8.712100 8.937400 37.950500 16.712000 0.000000 0.000000 0.000000 -3.687600 -16.535100 -55.427800 14.362000 19.220200 73.306900 1.124100 -20.882900 -22.449600 1.717900 -8.252000 -23.482200 0.000000 0.000000 0.000000 7.942000 -10.570700 -66.653400 -21.275100 -19.961000 93.730500 -2.326100 -0.192200 -28.963200 -0.103600 2.075400 -5.714100 -2.125600 1.166000 30.474200 1.919100 1.336200 7.480700 2.890100 0.786000 -8.370200 -8.351000 -11.193600 -17.054200 9.989600 -13.830100 0.095200 3.127900 -6.422200 3.984200 -0.000000 0.000000 0.000000 7.975500 5.088300 17.489000 39.619000 -47.842500 18.156300 37.102000 16.366700 -30.978600 0.000000 0.000000 0.000000 -7.125000 0.000000 0.000000 7.951900 66.789400 -4.185500 -0.000000 0.000000 0.000000 -36.131100 -16.455100 -17.682500 -47.059700 -51.738500 -23.845300 -31.680800 32.767800 10.225100 0.000000 0.000000 0.000000 7.125000 0.000000 -0.000000 -4.180200 41.910700 -0.319200
-10.111695 14.648606 -8.315865 8.013453 36.976037 15.829958 0.000000 0.000000 0.000000 -0.523692 -16.590878 -52.062824 13.383697 18.916331 70.313025 0.293615 -23.172714 -18.361268 0.292223 -3.475411 -9.605407 0.000000 0.000000 0.000000 11.192405 -8.751317 -64.390639 -20.399468 -19.996032 91.167989 -2.473188 0.035360 -29.797453 -0.052998 1.485693 -4.086345 -2.217823 1.154944 29.943875 2.233177 1.326656 7.586586 3.303670 0.773991 -8.004569 -8.189417 -10.113646 -18.476639 8.668622 -12.292993 1.559079 2.795888 -5.667516 4.410856 0.000000 0.000000 0.000000 7.215023 5.015457 19.168929 37.971871 -46.821327 16.945109 35.788493 17.473713 -30.758601 0.000000 0.000000 0.000000 -7.125000 0.000000 0.000000 6.093305 66.150921 -3.115092 0.000000 0.000000 0.000000 -37.278994 -16.997093 -16.760670 -45.964931 -51.229719 -22.989441 -31.117528 33.374530 10.216815 0.000000 0.000000 0.000000 7.125000 0.000000 0.000000 -3.671439 41.839962 -0.286608
-10.452684 14.788735 -7.965409 6.435729 34.772467 14.056493 0.000000 0.000000 0.000000 1.910344 -16.481154 -48.487995 12.758882 18.693348 68.374929 0.450642 -19.758217 -17.438197 0.823952 -5.684202 -15.902139 0.000000 0.000000 0.000000 14.991469 -7.931449 -61.800430 -19.493332 -19.993795 88.518428 -2.613640 0.950200 -30.368319 -0.005548 0.458459 -1.259695 -1.314939 1.214577 29.894728 2.171714 1.635586 7.390918 2.599794 0.900494 -8.207080 -7.209433 -8.724324 -18.680391 7.244971 -10.601754 3.106797 2.370894 -4.886176 4.652788 0.000000 0.000000 0.000000 6.953250 5.035350 20.793568 35.194074 -44.950069 14.950382 37.804956 19.640900 -32.032183 0.000000 0.000000 0.000000 -7.125000 0.000000 0.000000 8.734699 68.166601 -4.873899 0.000000 0.000000 0.000000 -37.990932 -17.419726 -15.840488 -44.759761 -50.650161 -22.052840 -32.102838 33.683443 9.527160 0.000000 0.000000 0.000000 7.125000 0.000000 0.000000 -4.568348 41.140926 -0.441695
-10.756612 15.005441 -7.651249 4.289498 31.837211 12.303351 0.000000 0.000000 0.000000 6.844988 -16.482443 -51.639518 14.471664 19.250568 73.639610 -0.321707 -14.594913 -5.976531 3.261956 -11.100870 -32.628564 0.000000 0.000000 0.000000 19.281140 -7.329061 -59.122979 -18.197241 -19.921850 84.722378 -2.654826 2.423410 -30.231046 -0.002069 -0.292954 0.804941 -0.638861 1.826373 29.607514 2.644252 2.628064 7.132090 2.385389 1.347663 -8.415303 -5.907183 -6.561162 -19.309041 4.124240 -7.713841 4.406675 1.481256 -3.628445 4.765474 0.000000 0.000000 0.000000 6.406969 5.745217 19.581935 33.956874 -44.052662 14.083138 36.752191 16.992732 -32.500421 0.000000 0.000000 0.000000 -7.125000 0.000000 0.000000 6.945265 68.351450 -3.903648 0.000000 0.000000 0.000000 -36.829913 -16.343015 -14.984726 -46.943148 -51.685417 -23.753940 -32.299879 33.343085 7.691578 0.000000 0.000000 0.000000 7.125000 0.000000 0.000000 -4.753311 39.016114 -0.702681
